<?xml version="1.0" ?><!DOCTYPE svg  PUBLIC '-//W3C//DTD SVG 1.0//EN'  'http://www.w3.org/TR/2001/REC-SVG-20010904/DTD/svg10.dtd'><svg enable-background="new 0 0 32 32" height="32px" id="Layer_1" version="1.0" viewBox="0 0 32 32" width="32px" xml:space="preserve" xmlns="http://www.w3.org/2000/svg" xmlns:xlink="http://www.w3.org/1999/xlink"><g><path d="M22.592,1.413c-2.088-0.948-4.306-1.434-6.596-1.434c-1.907,0-3.782,0.366-5.587,1.043   c0.424,0.384,11.636,10.561,12.183,11.057C22.592,11.345,22.592,1.639,22.592,1.413L22.592,1.413z" fill="#E24444"/><path d="M7.762,29.732c0-0.625,0-13.017,0-13.755c-0.534,0.486-6.425,5.841-6.609,6.007   C2.435,25.2,4.774,27.927,7.762,29.732L7.762,29.732z" fill="#2175BB"/><path d="M0,16.07c0,1.374,0.208,2.771,0.581,4.155c0.434-0.395,13.902-12.632,14.18-12.884   C14.49,7.097,8.889,2.013,8.707,1.847C3.336,4.604,0,10.038,0,16.07L0,16.07z" fill="#824DBA"/><path d="M9.443,23.021c0,0.333,0,7.404,0,7.633c1.626,0.73,3.327,1.184,5.078,1.346h2.934   c5.526-0.515,10.459-3.921,12.911-8.979C29.788,23.021,9.786,23.021,9.443,23.021L9.443,23.021z" fill="#4AAE48"/><path d="M24.278,2.424c0,0.635,0,18.572,0,18.913c0.329,0,6.554,0,6.808,0c0.596-1.704,0.908-3.476,0.908-5.267   C31.994,10.511,29.038,5.321,24.278,2.424L24.278,2.424z" fill="#F7BD1B"/></g><g/><g/><g/><g/><g/><g/></svg>