<?xml version="1.0" encoding="utf-8"?>
<!-- Generator: Adobe Illustrator 16.0.0, SVG Export Plug-In . SVG Version: 6.00 Build 0)  -->
<!DOCTYPE svg PUBLIC "-//W3C//DTD SVG 1.1//EN" "http://www.w3.org/Graphics/SVG/1.1/DTD/svg11.dtd">
<svg version="1.1" id="Layer_1" xmlns="http://www.w3.org/2000/svg" xmlns:xlink="http://www.w3.org/1999/xlink" x="0px" y="0px"
	 width="1650px" height="630px" viewBox="0 0 1650 630" enable-background="new 0 0 1650 630" xml:space="preserve">
<g id="tag_x5F_prototype" display="none">
	
		<line display="inline" opacity="0.1" fill="none" stroke="#22D5DA" stroke-width="11.3386" stroke-linecap="round" stroke-linejoin="round" stroke-miterlimit="10" x1="1688" y1="370" x2="1682" y2="435"/>
	
		<line display="inline" opacity="0.1" fill="none" stroke="#22D5DA" stroke-width="11.3386" stroke-linecap="round" stroke-linejoin="round" stroke-miterlimit="10" x1="1713" y1="370" x2="1707" y2="435"/>
	
		<line display="inline" opacity="0.1" fill="none" stroke="#22D5DA" stroke-width="11" stroke-linecap="round" stroke-linejoin="round" stroke-miterlimit="10" x1="1730" y1="390.5" x2="1665" y2="390.5"/>
	
		<line display="inline" opacity="0.1" fill="none" stroke="#22D5DA" stroke-width="11" stroke-linecap="round" stroke-linejoin="round" stroke-miterlimit="10" x1="1730" y1="415.5" x2="1665" y2="415.5"/>
</g>
<path opacity="0.1" fill="#22D5DA" d="M1503.781,251h-14.323l1.235-14h13.088c2.9,0,5.252-2.1,5.252-5s-2.352-5-5.252-5h-12.119
	l1.276-13.961c0.274-2.979-1.916-5.682-4.894-5.957c-2.979-0.289-5.613,2.017-5.889,4.995L1480.788,227h-13l1.277-13.961
	c0.274-2.979-1.917-5.682-4.894-5.957c-2.986-0.289-5.615,2.017-5.889,4.995L1456.915,227h-15.204c-2.9,0-5.252,2.1-5.252,5
	s2.352,5,5.252,5h14.234l-1.234,14h-13c-2.9,0-5.252,2.1-5.252,5s2.352,5,5.252,5h12.03l-1.188,12.925
	c-0.274,2.978,1.916,5.64,4.893,5.915c0.17,0.016,0.338,0.037,0.505,0.037c2.765,0,5.125-2.155,5.385-4.963l1.28-13.914h12.999
	l-1.188,12.925c-0.274,2.978,1.916,5.64,4.894,5.915c0.169,0.016,0.337,0.037,0.504,0.037c2.766,0,5.125-2.155,5.385-4.963
	l1.28-13.914h15.292c2.9,0,5.252-2.1,5.252-5S1506.682,251,1503.781,251z M1465.585,251l1.234-14h12.999l-1.233,14H1465.585z"/>
<path opacity="0.1" fill="#22D5DA" d="M579.111,521.727l-14.01,2.976l-1.571-13.335l12.803-2.719
	c2.837-0.603,4.649-3.393,4.046-6.229c-0.603-2.837-3.392-4.649-6.229-4.047l-11.854,2.518l-1.624-13.788
	c-0.351-2.971-3.041-5.094-6.01-4.744c-2.974,0.336-5.094,3.04-4.744,6.01l1.742,14.782l-12.716,2.702l-1.625-13.79
	c-0.35-2.971-3.041-5.094-6.009-4.744c-2.982,0.338-5.095,3.041-4.744,6.01l1.741,14.783l-14.872,3.159
	c-2.837,0.603-4.649,3.392-4.046,6.229c0.602,2.837,3.392,4.648,6.229,4.046l13.923-2.958l1.571,13.335l-12.717,2.7
	c-2.837,0.604-4.649,3.392-4.045,6.229c0.603,2.837,3.391,4.649,6.229,4.047l11.768-2.499l1.512,12.836
	c0.351,2.971,3.042,5.094,6.01,4.744c0.169-0.02,0.335-0.048,0.499-0.081c2.705-0.575,4.575-3.128,4.245-5.929l-1.628-13.83
	l12.715-2.701l1.512,12.837c0.351,2.97,3.041,5.093,6.01,4.743c0.169-0.02,0.335-0.046,0.498-0.082
	c2.705-0.574,4.575-3.127,4.246-5.927l-1.629-13.831l14.958-3.177c2.836-0.604,4.648-3.393,4.046-6.229
	C584.738,522.935,581.948,521.123,579.111,521.727z M541.748,529.662l-1.569-13.334l12.715-2.7l1.57,13.333L541.748,529.662z"/>
<path opacity="0.1" fill="#22D5DA" d="M204.735,110.058l-12.404-7.163l7.755-10.961l11.334,6.545
	c2.511,1.451,5.725,0.591,7.175-1.92c1.45-2.512,0.589-5.726-1.922-7.177l-10.495-6.06l8.019-11.334
	c1.727-2.441,1.148-5.82-1.292-7.547c-2.435-1.74-5.819-1.149-7.546,1.292l-8.597,12.151l-11.258-6.5l8.019-11.335
	c1.728-2.441,1.149-5.821-1.292-7.546c-2.442-1.745-5.82-1.15-7.546,1.291l-8.597,12.151l-13.167-7.604
	c-2.511-1.45-5.724-0.589-7.175,1.921c-1.45,2.513-0.589,5.726,1.923,7.177l12.327,7.117l-7.754,10.961l-11.259-6.502
	c-2.511-1.45-5.724-0.59-7.174,1.922s-0.591,5.725,1.922,7.175l10.417,6.017l-7.464,10.552c-1.727,2.442-1.148,5.82,1.292,7.546
	c0.139,0.1,0.282,0.19,0.425,0.274c2.395,1.382,5.493,0.736,7.121-1.566l8.044-11.367l11.257,6.501l-7.466,10.551
	c-1.726,2.442-1.148,5.819,1.293,7.547c0.138,0.099,0.28,0.189,0.424,0.272c2.395,1.383,5.493,0.736,7.122-1.564l8.043-11.368
	l13.242,7.647c2.512,1.448,5.725,0.588,7.175-1.923C208.107,114.719,207.247,111.507,204.735,110.058z M171.657,90.955l7.755-10.959
	l11.257,6.501l-7.755,10.96L171.657,90.955z"/>
<g opacity="0.1">
	
		<polygon fill="none" stroke="#22D5DA" stroke-width="11.3386" stroke-linecap="round" stroke-linejoin="round" stroke-miterlimit="10" points="
		709.075,127.058 737.86,132.904 751.97,158.668 768.772,90.957 	"/>
</g>
<g opacity="0.1">
	
		<polygon fill="none" stroke="#22D5DA" stroke-width="11.3386" stroke-linecap="round" stroke-linejoin="round" stroke-miterlimit="10" points="
		964.65,555.52 983.275,532.807 1012.646,532.379 960.646,485.871 	"/>
</g>
<g opacity="0.1">
	
		<polygon fill="none" stroke="#22D5DA" stroke-width="11.3386" stroke-linecap="round" stroke-linejoin="round" stroke-miterlimit="10" points="
		85.65,366.52 104.275,343.807 133.646,343.379 81.646,296.871 	"/>
</g>
<path opacity="0.1" fill="none" stroke="#22D5DA" stroke-width="11.3386" stroke-linecap="round" stroke-linejoin="round" stroke-miterlimit="10" d="
	M637.766,299.582c2.87-15.508-16.64-27.053-27.774-14.12c-7.67,8.907-4.869,27.18-3.079,49.952
	c22.782-1.614,41.266-1.561,48.936-10.467C667.023,311.967,652.557,294.479,637.766,299.582z"/>
<path opacity="0.1" fill="none" stroke="#22D5DA" stroke-width="11.3386" stroke-linecap="round" stroke-linejoin="round" stroke-miterlimit="10" d="
	M1539.199,495.826c-5.597-14.744-28.265-14.484-31.069,2.349c-1.933,11.594,9.946,25.759,23.297,44.294
	c18.634-13.206,34.462-22.754,36.394-34.348C1570.636,491.226,1549.192,483.787,1539.199,495.826z"/>
<path opacity="0.1" fill="none" stroke="#22D5DA" stroke-width="11.3386" stroke-linecap="round" stroke-linejoin="round" stroke-miterlimit="10" d="
	M958.785,176.935c-10.625-11.654-31.61-3.079-28.029,13.606c2.466,11.493,18.721,20.298,37.95,32.626
	c12.475-19.131,23.682-33.83,21.217-45.322C986.328,161.098,963.652,162.063,958.785,176.935z"/>
</svg>
